<?xml version="1.0" encoding="UTF-8" standalone="no"?>
<!-- Generator: Adobe Illustrator 22.1.0, SVG Export Plug-In . SVG Version: 6.00 Build 0)  -->

<svg
   xmlns:dc="http://purl.org/dc/elements/1.1/"
   xmlns:cc="http://creativecommons.org/ns#"
   xmlns:rdf="http://www.w3.org/1999/02/22-rdf-syntax-ns#"
   xmlns:svg="http://www.w3.org/2000/svg"
   xmlns="http://www.w3.org/2000/svg"
   xmlns:sodipodi="http://sodipodi.sourceforge.net/DTD/sodipodi-0.dtd"
   xmlns:inkscape="http://www.inkscape.org/namespaces/inkscape"
   version="1.1"
   id="Laag_1"
   x="0px"
   y="0px"
   viewBox="0 0 2080 2325.5"
   style="enable-background:new 0 0 2080 2325.5;"
   xml:space="preserve"
   sodipodi:docname="python_logo.svg"
   inkscape:version="0.92.3 (unknown)"><metadata
   id="metadata34"><rdf:RDF><cc:Work
       rdf:about=""><dc:format>image/svg+xml</dc:format><dc:type
         rdf:resource="http://purl.org/dc/dcmitype/StillImage" /></cc:Work></rdf:RDF></metadata><defs
   id="defs32" /><sodipodi:namedview
   pagecolor="#ffffff"
   bordercolor="#666666"
   borderopacity="1"
   objecttolerance="10"
   gridtolerance="10"
   guidetolerance="10"
   inkscape:pageopacity="0"
   inkscape:pageshadow="2"
   inkscape:window-width="1920"
   inkscape:window-height="1017"
   id="namedview30"
   showgrid="false"
   inkscape:zoom="0.3329929"
   inkscape:cx="533.98321"
   inkscape:cy="1162.75"
   inkscape:window-x="0"
   inkscape:window-y="0"
   inkscape:window-maximized="1"
   inkscape:current-layer="Laag_1" />
<style
   type="text/css"
   id="style2">
	.st0{fill:#656565;}
	.st1{fill:url(#SVGID_1_);}
	.st2{fill:url(#SVGID_2_);}
	.st3{opacity:0.444;fill:url(#SVGID_3_);enable-background:new    ;}
</style>

<linearGradient
   id="SVGID_1_"
   gradientUnits="userSpaceOnUse"
   x1="12914.6377"
   y1="-27007.6797"
   x2="12991.0264"
   y2="-27073.4023"
   gradientTransform="matrix(10.724875,0,0,-10.829733,-138271.11,-292445.01)">
	<stop
   offset="0"
   style="stop-color:#5CA0D5"
   id="stop6" />
	<stop
   offset="1"
   style="stop-color:#316A99"
   id="stop8" />
</linearGradient>

<linearGradient
   id="SVGID_2_"
   gradientUnits="userSpaceOnUse"
   x1="13020.6973"
   y1="-27113.1328"
   x2="12993.4189"
   y2="-27074.5391"
   gradientTransform="matrix(10.724875,0,0,-10.829733,-138271.11,-292445.01)">
	<stop
   offset="0"
   style="stop-color:#FFD43E"
   id="stop13" />
	<stop
   offset="1"
   style="stop-color:#FFE975"
   id="stop15" />
</linearGradient>

<g
   id="g38"
   transform="matrix(0.90584858,0,0,0.90584858,314.8019,218.95854)"><path
     style="fill:#656565;stroke-width:0.76978189"
     inkscape:connector-curvature="0"
     id="path4"
     d="m 174.81747,2065.8756 c 0,-70.9739 -20.24526,-106.3839 -60.81277,-107.6925 -16.473331,-1.2317 -31.638035,2.5403 -46.879717,7.6208 -12.701401,3.772 -20.245264,8.8525 -24.094174,12.7014 v 167.1967 c 25.325825,16.4733 48.11137,24.0941 68.433611,22.7855 41.79916,-3.8489 63.35305,-38.0272 63.35305,-102.6119 z m 49.42,2.5403 c 0,35.4869 -7.62084,64.5847 -25.32582,88.6788 -19.01362,26.6345 -44.33944,40.5675 -78.51776,40.5675 -25.325823,1.2317 -50.651648,-7.6208 -77.286103,-24.0941 V 2325.6 L 0,2310.3583 v -338.2422 c 7.620841,-8.8524 16.473333,-16.4733 26.634454,-22.7855 25.325825,-15.1647 57.04084,-22.7855 92.450806,-22.7855 32.94667,0 59.50414,13.933 77.28611,40.5675 18.93663,29.0977 27.8661,60.7358 27.8661,101.3033 z m 262.18772,100.0716 c 0,48.1114 -5.08056,81.058 -13.93305,98.84 -10.16112,17.705 -27.8661,32.9467 -54.50056,44.3394 -22.78554,8.8525 -45.57109,13.9331 -70.97389,13.9331 l -7.62084,-26.6345 c 26.63445,-3.7719 44.33944,-7.6208 54.50056,-10.1611 20.24526,-7.6208 35.48694,-17.705 43.03081,-32.9466 6.31221,-11.3928 8.85249,-34.1784 8.85249,-67.125 V 2177.34 c -29.09776,13.9331 -60.81277,20.2453 -92.45081,20.2453 -21.55389,0 -40.56751,-6.3122 -55.73221,-20.2453 -17.70498,-13.933 -26.63446,-32.9467 -26.63446,-55.7322 v -178.5894 l 43.03081,-15.1647 v 179.898 c 0,19.0136 6.31222,34.1783 19.01362,44.3395 12.7014,10.1611 27.8661,15.1647 48.11137,15.1647 20.24526,0 40.5675,-7.6209 63.35305,-22.7856 v -210.3814 h 43.03081 z m 167.19664,27.8661 h -13.93306 c -24.09417,0 -43.03081,-6.3122 -57.04084,-17.705 -13.93305,-11.3927 -20.24526,-27.8661 -20.24526,-48.1113 v -169.737 h -29.09776 v -26.7114 h 29.09776 v -72.2055 l 43.03081,-15.1647 v 87.3702 h 48.11137 v 26.6345 H 605.43348 V 2127.92 c 0,16.4733 3.77193,27.8661 12.7014,34.1783 7.62084,5.0806 19.01361,8.8525 35.48695,10.1611 z m 260.95607,-3.8489 h -43.03081 v -165.965 c 0,-16.4733 -3.77193,-31.638 -11.39278,-43.0308 -8.85249,-13.933 -21.55389,-20.2452 -38.02722,-20.2452 -20.24527,0 -44.33944,10.1611 -73.4372,31.638 v 198.9116 h -43.03081 v -396.5146 l 43.03081,-13.9331 v 179.8981 c 27.86611,-20.2453 57.04084,-30.4064 89.91053,-30.4064 22.78555,0 40.56751,7.6208 55.73221,22.7855 13.93305,15.1647 21.5539,34.1783 21.5539,57.0409 z m 228.0094,-134.25 c 0,-26.6344 -5.0806,-49.42 -15.1647,-67.1249 -12.7014,-21.5539 -30.4064,-32.9467 -57.0408,-34.1784 -46.8798,2.5403 -70.97394,36.7186 -70.97394,101.3033 0,30.4064 5.08054,54.5006 15.16474,74.7459 12.7014,25.3258 31.638,38.0272 57.0408,38.0272 46.8797,-1.3086 70.9739,-38.0272 70.9739,-112.7731 z m 46.8797,0 c 0,38.0273 -10.1611,70.9739 -29.0977,96.2998 -21.5539,27.8661 -51.9603,43.0308 -88.6789,43.0308 -38.0272,0 -67.125,-13.9331 -88.67889,-43.0308 -19.01361,-25.3259 -29.09776,-57.0409 -29.09776,-96.2998 0,-36.7186 10.16112,-67.1249 31.63804,-91.2191 22.78551,-26.6345 50.65161,-39.2589 86.13861,-39.2589 35.4869,0 64.5847,12.7014 87.3702,39.2589 20.2453,25.3258 30.4064,55.7322 30.4064,91.2191 z m 247.023,134.25 h -43.0308 v -174.8175 c 0,-19.0136 -6.3122,-34.1783 -17.705,-44.3394 -11.3927,-10.1611 -26.6344,-16.4733 -46.8797,-15.1647 -20.2452,0 -40.5675,7.6208 -58.2725,20.2453 v 216.6166 h -43.0308 v -221.6972 c 24.0942,-17.705 46.8797,-30.4064 68.4336,-35.487 20.2453,-5.0805 36.7186,-7.6208 51.9603,-7.6208 10.1611,0 20.2453,1.2317 29.0978,2.5403 16.4733,3.7719 30.4064,11.3928 40.5675,21.5539 11.3928,11.3928 17.705,26.6344 17.705,43.0308 z"
     class="st0" /><path
     style="fill:#656565;stroke-width:0.76978189"
     inkscape:connector-curvature="0"
     id="path20"
     d="m 1518.7797,1896.1387 h 7.6209 v -46.8798 h 17.7049 v -6.3122 h -43.0308 v 6.3122 h 17.705 z m 32.9467,0 h 6.3122 v -43.0308 l 13.9331,43.0308 h 7.6208 l 13.933,-43.0308 v 43.0308 h 7.6209 v -53.192 h -8.8525 l -16.4733,45.5711 -13.9331,-45.5711 h -10.1611 z"
     class="st0" /></g>
<radialGradient
   id="SVGID_3_"
   cx="-83039.6641"
   cy="-13866.3984"
   r="20.3396"
   gradientTransform="matrix(0,-4.5740294,-20.109416,0,-277825.47,-378136.59)"
   gradientUnits="userSpaceOnUse">
	<stop
   offset="0"
   style="stop-color:#B8B8B8;stop-opacity:0.498"
   id="stop22" />
	<stop
   offset="1"
   style="stop-color:#7F8080;stop-opacity:0"
   id="stop24" />
</radialGradient>
<g
   id="g43"
   transform="translate(21.304729)"><path
     inkscape:connector-curvature="0"
     style="fill:url(#SVGID_1_);stroke-width:1.15865684"
     id="path11"
     d="m 1008.6876,0.34785714 c -61.06118,0 -120.15268,5.67741836 -171.59704,15.29426986 C 684.61132,42.291234 657.84635,97.675029 657.84635,202.53347 V 339.8343 h 358.48845 v 45.76695 H 524.36908 c -103.00459,0 -194.42261,62.91506 -223.04143,181.09806 -32.44239,137.30083 -34.29624,221.18758 0,364.16583 24.79525,106.82816 85.85647,181.09806 190.71491,181.09806 H 616.01884 V 948.01326 c 0,-118.18299 103.00459,-223.04143 223.04143,-223.04143 H 1195.579 c 99.181,0 179.2442,-82.03291 179.2442,-183.06778 v -341.3403 c 0,-97.2113 -82.0329,-169.743219 -179.2442,-186.89134 C 1132.548,4.1714246 1069.633,-1.5059938 1008.6876,0.34785714 Z M 814.14915,109.02987 c 36.26596,0 66.73863,30.47267 66.73863,68.59248 0,38.11981 -30.47267,68.59248 -66.73863,68.59248 -36.26596,0 -66.73863,-30.47267 -66.73863,-68.59248 0,-38.11981 28.61882,-68.59248 66.73863,-68.59248 z"
     class="st1" /><path
     inkscape:connector-curvature="0"
     style="fill:url(#SVGID_2_);stroke-width:1.15865684"
     id="path18"
     d="m 1418.6204,381.66181 v 158.27252 c 0,123.97628 -104.8584,226.86501 -225.0111,226.86501 H 837.09056 c -97.21131,0 -179.24421,83.88675 -179.24421,183.06777 v 341.34029 c 0,97.2113 83.88675,154.449 179.24421,183.0678 112.50557,34.2962 221.18754,40.0895 358.48844,0 89.5641,-26.6491 179.2442,-78.2094 179.2442,-183.0678 v -137.3008 h -358.6043 v -45.767 h 537.7326 c 103.0046,0 142.9783,-72.416 179.2442,-181.09803 38.1198,-112.50557 36.266,-219.21787 0,-364.16583 C 1708.4005,459.87115 1658.81,381.77768 1553.9515,381.77768 Z m -202.1856,863.77869 c 36.266,0 66.7386,30.4726 66.7386,68.5924 0,38.1199 -30.4726,68.5925 -66.7386,68.5925 -36.266,0 -66.7386,-30.4726 -66.7386,-68.5925 0,-38.1198 30.5885,-68.5924 66.7386,-68.5924 z"
     class="st2" /><path
     inkscape:connector-curvature="0"
     style="opacity:0.444;fill:url(#SVGID_3_);stroke-width:1.15865684;enable-background:new"
     id="path27"
     d="m 1500.5374,1704.9638 c 0,51.4443 -215.3943,93.3877 -480.4949,93.3877 -265.10071,0 -480.49501,-41.9434 -480.49501,-93.3877 0,-51.4444 215.3943,-93.3878 480.49501,-93.3878 265.1006,0 480.4949,41.8275 480.4949,93.3878 z"
     class="st3" /></g>
</svg>