<?xml version="1.0" encoding="UTF-8" standalone="no"?>
<svg
   xmlns:dc="http://purl.org/dc/elements/1.1/"
   xmlns:cc="http://creativecommons.org/ns#"
   xmlns:rdf="http://www.w3.org/1999/02/22-rdf-syntax-ns#"
   xmlns:svg="http://www.w3.org/2000/svg"
   xmlns="http://www.w3.org/2000/svg"
   xmlns:sodipodi="http://sodipodi.sourceforge.net/DTD/sodipodi-0.dtd"
   xmlns:inkscape="http://www.inkscape.org/namespaces/inkscape"
   width="2500"
   height="2500"
   viewBox="0 0 256 256"
   preserveAspectRatio="xMinYMin meet"
   version="1.1"
   id="svg8"
   sodipodi:docname="socketio_logo.svg"
   inkscape:version="0.92.3 (unknown)">
  <metadata
     id="metadata14">
    <rdf:RDF>
      <cc:Work
         rdf:about="">
        <dc:format>image/svg+xml</dc:format>
        <dc:type
           rdf:resource="http://purl.org/dc/dcmitype/StillImage" />
        <dc:title />
      </cc:Work>
    </rdf:RDF>
  </metadata>
  <defs
     id="defs12" />
  <sodipodi:namedview
     pagecolor="#ffffff"
     bordercolor="#666666"
     borderopacity="1"
     objecttolerance="10"
     gridtolerance="10"
     guidetolerance="10"
     inkscape:pageopacity="0"
     inkscape:pageshadow="2"
     inkscape:window-width="1920"
     inkscape:window-height="1017"
     id="namedview10"
     showgrid="false"
     inkscape:zoom="0.2540918"
     inkscape:cx="459.78059"
     inkscape:cy="1145.4629"
     inkscape:window-x="0"
     inkscape:window-y="0"
     inkscape:window-maximized="1"
     inkscape:current-layer="svg8">
    <sodipodi:guide
       position="0,0"
       orientation="0,2500"
       id="guide25"
       inkscape:locked="false" />
    <sodipodi:guide
       position="256,0"
       orientation="-2500,0"
       id="guide27"
       inkscape:locked="false" />
    <sodipodi:guide
       position="256,256"
       orientation="0,-2500"
       id="guide29"
       inkscape:locked="false" />
    <sodipodi:guide
       position="0,256"
       orientation="2500,0"
       id="guide31"
       inkscape:locked="false" />
  </sodipodi:namedview>
  <g
     id="g23"
     transform="matrix(1.5121702,0,0,1.5121702,-65.598648,-25.952462)">
    <path
       style="fill:#010101;stroke-width:0.50371677"
       inkscape:connector-curvature="0"
       id="path2"
       d="m 112.11964,20.306852 c 16.25343,-4.168256 34.21697,-1.739334 48.55124,7.107444 18.05321,10.796162 29.83918,31.21835 30.13889,52.24047 0.65987,21.231664 -10.40629,42.284004 -28.1895,53.829694 -19.79255,13.31475 -47.17207,13.82501 -67.384715,1.16963 C 74.633539,122.35836 62.607805,97.557866 65.6971,73.746666 68.185461,48.586016 87.618854,26.394773 112.11964,20.307356 Z" />
    <path
       style="fill:#ffffff;stroke-width:0.50371677"
       inkscape:connector-curvature="0"
       id="path4"
       d="M 109.63027,30.593253 C 140.33886,18.297526 178.00478,40.999034 181.18324,73.926996 186.13175,103.55562 161.5408,133.66429 131.5218,134.53421 102.97264,137.38323 75.38307,113.18165 74.573597,84.513116 72.444386,61.301846 87.738738,38.2704 109.63027,30.593253 Z" />
    <path
       style="fill:#010101;stroke-width:0.50371677"
       inkscape:connector-curvature="0"
       id="path6"
       d="m 112.71906,77.885706 c 13.76507,-11.24598 27.22992,-22.88183 41.2947,-33.797881 -7.37743,11.336151 -14.96442,22.521681 -22.34185,33.857321 -6.32769,0.0302 -12.65488,0.0302 -18.95285,-0.0599 z m 11.63586,6.26725 c 6.35741,0 12.6851,0 19.01279,0.0902 -13.85473,11.18554 -27.25964,22.911064 -41.35465,33.797384 7.37744,-11.33614 14.96442,-22.551404 22.34186,-33.887544 z" />
  </g>
  <text
     xml:space="preserve"
     style="font-style:normal;font-weight:normal;font-size:6.74630976px;line-height:1.25;font-family:sans-serif;letter-spacing:0px;word-spacing:0px;fill:#000000;fill-opacity:1;stroke:none;stroke-width:0.16865775"
     x="39.388805"
     y="249.07007"
     id="text18"><tspan
       sodipodi:role="line"
       id="tspan16"
       x="39.388805"
       y="249.07007"
       style="font-style:normal;font-variant:normal;font-weight:normal;font-stretch:normal;font-size:44.97539902px;font-family:Arial;-inkscape-font-specification:'Arial, Normal';font-variant-ligatures:normal;font-variant-caps:normal;font-variant-numeric:normal;font-feature-settings:normal;text-align:start;writing-mode:lr-tb;text-anchor:start;stroke-width:0.16865775">socket.io</tspan></text>
</svg>
